<?xml version="1.0" standalone="no"?>
<!DOCTYPE svg PUBLIC "-//W3C//DTD SVG 20010904//EN"
 "http://www.w3.org/TR/2001/REC-SVG-20010904/DTD/svg10.dtd">
<svg version="1.0" xmlns="http://www.w3.org/2000/svg"
 width="200.000000pt" height="200.000000pt" viewBox="0 0 200.000000 200.000000"
 preserveAspectRatio="xMidYMid meet">
<metadata>
Created by potrace 1.14, written by Peter Selinger 2001-2017
</metadata>
<g transform="translate(0.000000,200.000000) scale(0.100000,-0.100000)"
fill="#000000" stroke="none">
<path d="M100 1000 l0 -900 900 0 900 0 0 900 0 900 -900 0 -900 0 0 -900z
m1733 2 l2 -832 -832 0 -833 0 0 835 0 835 830 -2 830 -3 3 -833z"/>
<path d="M317 1614 c-4 -4 -7 -18 -7 -31 0 -19 7 -24 41 -29 22 -4 50 -15 62
-24 22 -18 22 -19 25 -476 2 -383 0 -465 -12 -509 -18 -59 -41 -85 -88 -94
-26 -5 -34 -12 -36 -34 l-3 -27 183 2 183 3 0 25 c0 21 -6 26 -37 31 -48 7
-75 32 -88 78 -10 36 -15 959 -5 950 4 -5 45 -117 140 -389 18 -52 59 -167 90
-255 31 -88 78 -220 103 -293 l46 -133 46 3 c44 3 45 4 62 53 9 28 71 203 138
390 135 378 215 602 223 625 3 8 6 -208 6 -481 1 -488 1 -497 -20 -523 -14
-18 -30 -26 -52 -26 -41 0 -60 -13 -55 -36 3 -18 17 -19 221 -22 l218 -2 -3
27 c-3 25 -8 29 -46 34 -53 7 -72 25 -83 81 -11 58 -11 902 1 953 11 47 26 60
81 69 37 6 40 9 37 34 l-3 27 -170 0 -169 0 -22 -60 c-13 -33 -48 -132 -79
-220 -31 -88 -79 -221 -105 -295 -27 -74 -65 -183 -86 -242 -21 -60 -41 -108
-44 -108 -3 0 -13 21 -22 48 -9 26 -66 186 -128 357 -61 171 -128 357 -149
415 l-37 105 -175 3 c-96 1 -178 -1 -182 -4z"/>
</g>
</svg>
