<?xml version="1.0" standalone="no"?>
<!DOCTYPE svg PUBLIC "-//W3C//DTD SVG 20010904//EN"
 "http://www.w3.org/TR/2001/REC-SVG-20010904/DTD/svg10.dtd">
<svg version="1.0" xmlns="http://www.w3.org/2000/svg"
 width="200.000000pt" height="200.000000pt" viewBox="0 0 200.000000 200.000000"
 preserveAspectRatio="xMidYMid meet">
<metadata>
Created by potrace 1.14, written by Peter Selinger 2001-2017
</metadata>
<g transform="translate(0.000000,200.000000) scale(0.100000,-0.100000)"
fill="#000000" stroke="none">
<path d="M170 995 l0 -445 75 0 75 0 1 263 1 262 87 -260 88 -260 58 0 58 0
88 260 87 260 1 -262 1 -263 75 0 75 0 0 445 0 445 -89 0 -88 0 -51 -157 c-28
-87 -74 -231 -102 -321 -29 -90 -54 -162 -55 -160 -2 2 -40 118 -85 258 -44
140 -90 283 -101 318 l-21 62 -89 0 -89 0 0 -445z"/>
<path d="M1080 995 l0 -445 76 0 75 0 -3 264 c-2 146 0 259 3 253 4 -7 44
-126 90 -264 l84 -253 57 0 56 0 90 268 90 267 1 -267 1 -268 70 0 70 0 0 445
0 445 -85 0 -84 0 -81 -252 c-45 -139 -92 -284 -104 -323 l-23 -70 -72 225
c-40 124 -87 269 -104 323 l-31 97 -88 0 -88 0 0 -445z"/>
</g>
</svg>
