<?xml version="1.0" standalone="no"?>
<!DOCTYPE svg PUBLIC "-//W3C//DTD SVG 20010904//EN"
 "http://www.w3.org/TR/2001/REC-SVG-20010904/DTD/svg10.dtd">
<svg version="1.0" xmlns="http://www.w3.org/2000/svg"
 width="594.000000pt" height="594.000000pt" viewBox="0 0 594.000000 594.000000"
 preserveAspectRatio="xMidYMid meet">

<g transform="translate(0.000000,594.000000) scale(0.100000,-0.100000)"
fill="#000000" stroke="none">
<path d="M2795 5934 c-22 -2 -89 -9 -150 -15 -479 -47 -995 -243 -1400 -533
-251 -180 -511 -439 -687 -686 -288 -403 -467 -861 -535 -1367 -23 -175 -23
-549 1 -726 74 -565 287 -1067 640 -1507 87 -108 295 -319 406 -410 445 -368
958 -591 1537 -666 160 -21 532 -24 688 -5 482 58 919 216 1310 474 316 209
623 514 835 831 392 584 562 1308 475 2015 -60 486 -246 959 -533 1361 -176
247 -436 506 -687 686 -394 282 -869 468 -1356 529 -120 15 -462 27 -544 19z
m465 -365 c589 -61 1159 -341 1585 -780 199 -205 350 -418 470 -663 186 -383
267 -732 267 -1156 0 -265 -26 -464 -94 -705 -91 -326 -258 -653 -472 -925
-87 -111 -347 -364 -458 -448 -392 -294 -825 -467 -1303 -523 -129 -15 -441
-15 -570 0 -493 57 -964 252 -1345 556 -290 231 -553 559 -715 890 -187 382
-267 730 -267 1155 0 384 71 724 222 1062 139 312 298 539 554 793 222 220
425 366 691 495 455 220 923 302 1435 249z"/>
<path d="M2341 4979 c-13 -5 -91 -48 -174 -96 -159 -92 -187 -119 -187 -182 0
-27 59 -138 271 -505 149 -259 284 -484 299 -500 22 -22 39 -30 77 -33 46 -4
56 1 207 89 87 51 168 106 180 121 14 18 21 43 21 70 0 36 -31 96 -234 447
-343 594 -324 565 -371 584 -46 18 -55 19 -89 5z"/>
<path d="M1773 4541 c-231 -153 -306 -275 -319 -516 -20 -363 148 -943 427
-1474 297 -564 673 -1049 1042 -1344 307 -245 505 -301 758 -212 98 34 234
109 233 128 -1 8 -124 228 -275 489 l-273 474 -66 -24 c-238 -87 -541 102
-779 486 -166 267 -258 584 -231 797 15 115 44 181 112 249 l59 59 -99 171
c-54 94 -179 311 -278 483 -98 172 -182 312 -185 313 -3 0 -60 -36 -126 -79z"/>
<path d="M3626 2376 c-169 -98 -196 -125 -196 -191 0 -21 74 -159 251 -465
318 -552 313 -544 344 -558 58 -27 94 -16 251 74 82 47 157 93 167 102 32 28
50 73 44 108 -5 28 -236 439 -498 885 -73 124 -90 139 -162 139 -35 -1 -70
-17 -201 -94z"/>
</g>
</svg>
